<?xml version="1.0"?>
<svg width="487" height="74" xmlns="http://www.w3.org/2000/svg" xmlns:svg="http://www.w3.org/2000/svg">
 <g class="layer">
  <title>Layer 1</title>
  <path d="m257.78,72.04l0,-68.48l37.06,0l0,9.55l-29.13,0l2.95,-2.58l0,26.15l-2.95,-3.74l27.31,0l0,9.55l-27.31,0l2.95,-3.74l0,33.29l-10.88,0z" fill="#ffffff" id="svg_1" transform="matrix(1 0 0 1 0 0)"/>
  <path d="m321.24,73.36c-4.53,0 -8.6,-0.98 -12.2,-2.94c-3.57,-1.97 -6.4,-4.65 -8.5,-8.05c-2.08,-3.41 -3.12,-7.24 -3.12,-11.5c0,-3.15 0.6,-6.1 1.79,-8.84c1.19,-2.74 2.83,-5.14 4.93,-7.22c2.11,-2.08 4.56,-3.69 7.35,-4.86c2.8,-1.16 5.81,-1.74 9.05,-1.74c4.42,0 8.3,0.91 11.62,2.74c3.35,1.83 5.95,4.37 7.8,7.64c1.88,3.26 2.82,7.07 2.82,11.41c0,0.36 -0.01,0.66 -0.04,0.91c-0.03,0.22 -0.08,0.61 -0.17,1.16l-34.61,0c0,2.58 0.58,4.85 1.75,6.81c1.16,1.94 2.78,3.46 4.85,4.57c2.11,1.07 4.51,1.61 7.22,1.61c2.58,0 4.86,-0.51 6.85,-1.53c2.02,-1.05 3.85,-2.64 5.48,-4.77l7.51,3.86c-2.02,3.37 -4.83,6.01 -8.43,7.92c-3.56,1.88 -7.55,2.82 -11.95,2.82zm-12.82,-27.76l24.11,0c-0.36,-1.94 -1.09,-3.61 -2.2,-5.02c-1.1,-1.41 -2.5,-2.51 -4.19,-3.28c-1.69,-0.8 -3.57,-1.2 -5.64,-1.2c-2.19,0 -4.14,0.38 -5.86,1.16c-1.71,0.77 -3.11,1.87 -4.19,3.28c-1.08,1.41 -1.75,3.1 -2.03,5.06z" fill="#ffffff" id="svg_2" transform="matrix(1 0 0 1 0 0)"/>
  <path d="m351.14,72.04l0,-42.5l10.33,0l0,5.1c1.47,-1.88 3.42,-3.41 5.85,-4.6c2.46,-1.22 5.27,-1.83 8.43,-1.83c3.26,0 6.11,0.71 8.54,2.12c2.47,1.38 4.38,3.35 5.73,5.89c1.36,2.55 2.04,5.56 2.04,9.05l0,26.77l-10.34,0l0,-24.61c0,-3.55 -0.88,-6.27 -2.66,-8.18c-1.74,-1.94 -4.16,-2.9 -7.26,-2.9c-2.13,0 -3.97,0.44 -5.52,1.32c-1.55,0.86 -2.74,2.02 -3.57,3.49c-0.83,1.44 -1.24,3.04 -1.24,4.81l0,26.07l-10.33,0z" fill="#ffffff" id="svg_3" transform="matrix(1 0 0 1 0 0)"/>
  <path d="m423.14,73.36c-3.21,0 -6.24,-0.56 -9.08,-1.7c-2.83,-1.16 -5.32,-2.76 -7.48,-4.81c-2.15,-2.05 -3.85,-4.44 -5.1,-7.18c-1.22,-2.74 -1.83,-5.7 -1.83,-8.88c0,-3.07 0.59,-5.96 1.75,-8.68c1.19,-2.73 2.83,-5.14 4.94,-7.22c2.13,-2.07 4.62,-3.7 7.47,-4.89c2.87,-1.19 5.97,-1.79 9.29,-1.79c2.77,0 5.41,0.4 7.93,1.2c2.54,0.81 4.65,1.86 6.31,3.16l-3.7,6.97c-2.43,-1.85 -5.43,-2.78 -9,-2.78c-2.94,0 -5.47,0.65 -7.6,1.95c-2.13,1.27 -3.76,2.99 -4.89,5.15c-1.14,2.13 -1.71,4.44 -1.71,6.93c0,2.63 0.6,5.01 1.79,7.14c1.19,2.1 2.86,3.77 5.02,5.02c2.16,1.24 4.65,1.86 7.47,1.86c1.74,0 3.38,-0.24 4.9,-0.74c1.55,-0.5 2.88,-1.18 3.98,-2.04l3.74,6.98c-1.69,1.27 -3.78,2.31 -6.27,3.11c-2.49,0.83 -5.13,1.24 -7.93,1.24z" fill="#ffffff" id="svg_4"/>
  <path d="m464.87,73.36c-4.54,0 -8.61,-0.98 -12.2,-2.94c-3.57,-1.97 -6.41,-4.65 -8.51,-8.05c-2.08,-3.41 -3.11,-7.24 -3.11,-11.5c0,-3.15 0.59,-6.1 1.78,-8.84c1.19,-2.74 2.84,-5.14 4.94,-7.22c2.1,-2.08 4.55,-3.69 7.35,-4.86c2.79,-1.16 5.81,-1.74 9.04,-1.74c4.43,0 8.3,0.91 11.62,2.74c3.35,1.83 5.95,4.37 7.8,7.64c1.89,3.26 2.83,7.07 2.83,11.41c0,0.36 -0.02,0.66 -0.04,0.91c-0.03,0.22 -0.09,0.61 -0.17,1.16l-34.61,0c0,2.58 0.58,4.85 1.74,6.81c1.16,1.94 2.78,3.46 4.86,4.57c2.1,1.07 4.51,1.61 7.22,1.61c2.57,0 4.85,-0.51 6.84,-1.53c2.02,-1.05 3.85,-2.64 5.48,-4.77l7.52,3.86c-2.02,3.37 -4.83,6.01 -8.43,7.92c-3.57,1.88 -7.55,2.82 -11.95,2.82zm-12.82,-27.76l24.11,0c-0.36,-1.94 -1.1,-3.61 -2.2,-5.02c-1.11,-1.41 -2.51,-2.51 -4.2,-3.28c-1.68,-0.8 -3.56,-1.2 -5.64,-1.2c-2.18,0 -4.13,0.38 -5.85,1.16c-1.71,0.77 -3.11,1.87 -4.19,3.28c-1.08,1.41 -1.76,3.1 -2.03,5.06z" fill="#ffffff" id="svg_5"/>
  <path clip-rule="evenodd" d="m64.76,72.04l0,-71.38l12.74,0l0,71.38l-12.74,0zm-26.81,1.32c-5.17,0 -10.03,-0.91 -14.56,-2.74c-4.54,-1.82 -8.54,-4.35 -12,-7.59c-3.45,-3.26 -6.15,-7.04 -8.09,-11.33c-1.94,-4.29 -2.9,-8.89 -2.9,-13.82c0,-4.95 0.96,-9.57 2.9,-13.86c1.97,-4.32 4.66,-8.09 8.09,-11.33c3.46,-3.26 7.45,-5.81 11.96,-7.64c4.53,-1.82 9.38,-2.73 14.52,-2.73c4.21,0 8.2,0.59 11.99,1.78c3.82,1.19 7.09,2.75 9.8,4.69l-5.81,11.41c-1.86,-1.46 -4.11,-2.61 -6.77,-3.44c-2.65,-0.83 -5.43,-1.25 -8.34,-1.25c-3.4,0 -6.55,0.57 -9.46,1.7c-2.88,1.14 -5.39,2.72 -7.55,4.73c-2.13,2.02 -3.79,4.39 -4.98,7.1c-1.19,2.71 -1.79,5.65 -1.79,8.8c0,3.15 0.6,6.09 1.79,8.8c1.19,2.71 2.85,5.07 4.98,7.09c2.16,2.02 4.67,3.6 7.55,4.73c2.91,1.14 6.06,1.71 9.46,1.71c2.91,0 5.69,-0.42 8.34,-1.25c2.66,-0.83 4.91,-1.98 6.77,-3.44l5.81,11.41c-2.6,1.88 -5.8,3.43 -9.59,4.65c-3.79,1.21 -7.83,1.82 -12.12,1.82zm59.04,-2.86c3.76,1.91 7.98,2.86 12.65,2.86c4.71,0 8.94,-0.95 12.7,-2.86c3.77,-1.94 6.74,-4.59 8.93,-7.97c2.21,-3.4 3.32,-7.32 3.32,-11.74c0,-4.43 -1.11,-8.33 -3.32,-11.71c-2.19,-3.4 -5.16,-6.05 -8.93,-7.96c-3.76,-1.94 -7.99,-2.91 -12.7,-2.91c-4.67,0 -8.9,0.97 -12.69,2.91c-3.77,1.91 -6.75,4.56 -8.97,7.96c-2.18,3.38 -3.28,7.28 -3.28,11.71c0,4.42 1.11,8.34 3.32,11.74c2.22,3.38 5.2,6.03 8.97,7.97zm65.71,2.86c-7.75,0 -13.34,-1.53 -16.77,-4.6c-3.43,-3.07 -5.14,-8.1 -5.14,-15.07l0,-24.15l12.74,0l0,21.16c0,4.49 0.69,7.65 2.07,9.51c1.41,1.85 3.78,2.78 7.1,2.78c3.37,0 5.74,-0.93 7.1,-2.78c1.38,-1.86 2.07,-5.02 2.07,-9.51l0,-21.16l12.74,0l0,24.15c0,6.97 -1.71,12 -5.14,15.07c-3.41,3.07 -9,4.6 -16.77,4.6zm38.96,-2.86c3.18,1.91 6.69,2.86 10.54,2.86c2.96,0 5.73,-0.61 8.3,-1.82c2.57,-1.22 4.8,-2.92 6.68,-5.11l0,5.61l12.74,0l0,-71.38l-12.74,0l0,34.07c-1.68,-2.05 -3.8,-3.64 -6.35,-4.78c-2.54,-1.16 -5.31,-1.74 -8.3,-1.74c-4.12,0 -7.78,1 -10.99,2.99c-3.19,1.96 -5.69,4.65 -7.52,8.05c-1.82,3.38 -2.74,7.22 -2.74,11.54c0,4.4 0.95,8.3 2.83,11.7c1.88,3.4 4.4,6.07 7.55,8.01zm20.29,-9.46c-1.71,0.99 -3.69,1.49 -5.93,1.49c-2.19,0 -4.14,-0.5 -5.85,-1.49c-1.72,-1.03 -3.06,-2.41 -4.03,-4.15c-0.97,-1.77 -1.45,-3.78 -1.45,-6.02c0,-2.27 0.5,-4.29 1.49,-6.06c1,-1.8 2.34,-3.21 4.03,-4.23c1.71,-1.03 3.67,-1.54 5.85,-1.54c2.21,0 4.18,0.51 5.89,1.54c1.72,1.02 3.06,2.42 4.03,4.19c0.99,1.77 1.49,3.79 1.49,6.06c0,2.24 -0.5,4.25 -1.49,6.02c-0.97,1.77 -2.31,3.16 -4.03,4.19zm-99.82,-13.75c1.61,0.34 3.09,1.17 4.22,2.4c1.39,1.49 2.15,3.43 2.15,5.47c0,4.43 -3.61,8.04 -8.04,8.04c-0.02,0 -0.04,0 -0.06,0c-0.03,0 -0.05,0 -0.08,0c-0.01,0 -0.03,0 -0.05,0l-21.33,0c-5.16,0 -9.35,-4.19 -9.35,-9.35c0,-3.33 1.75,-6.26 4.37,-7.92c0.01,0 0.01,0 0.02,-0.01c0.01,0 0.01,0 0.02,-0.01c0.18,-0.11 0.36,-0.22 0.55,-0.32c0.01,0 0.02,-0.01 0.02,-0.01l0.02,-0.01c0.19,-0.1 0.38,-0.19 0.57,-0.28l0.05,-0.02c0.09,-0.04 0.19,-0.08 0.29,-0.12l0,0c0.1,-0.04 0.2,-0.08 0.3,-0.11l0.05,-0.02c0.1,-0.04 0.2,-0.07 0.3,-0.1l0,0c0.1,-0.03 0.2,-0.06 0.3,-0.09c0.03,-0.01 0.05,-0.01 0.07,-0.02c0.1,-0.02 0.2,-0.05 0.3,-0.07l0,0c0.11,-0.03 0.21,-0.05 0.31,-0.07l0.07,-0.01c0.1,-0.02 0.2,-0.04 0.31,-0.06l0,0c0.11,-0.01 0.21,-0.03 0.32,-0.04c0.02,0 0.05,-0.01 0.07,-0.01c0.11,-0.01 0.21,-0.02 0.31,-0.03l0.01,0c0.11,-0.01 0.21,-0.01 0.32,-0.02l0.08,0c0.11,0 0.21,-0.01 0.32,-0.01c0.25,0 0.5,0.01 0.75,0.03c0.04,0.01 0.07,0.01 0.11,0.01c0.05,0.01 0.09,0.01 0.13,0.02c0.17,0.01 0.33,0.03 0.49,0.06c0.16,0.03 0.33,0.06 0.49,0.09c0.03,-0.1 0.06,-0.2 0.09,-0.3l0.02,-0.06c0.04,-0.1 0.07,-0.19 0.11,-0.29c0,-0.01 0.01,-0.03 0.01,-0.04c0.04,-0.09 0.07,-0.18 0.11,-0.26c0,-0.01 0,-0.02 0.01,-0.03c0,-0.01 0,-0.02 0.01,-0.02c0.03,-0.1 0.07,-0.19 0.12,-0.28l0.02,-0.06c0.04,-0.09 0.08,-0.17 0.12,-0.26l0.01,-0.02c0.05,-0.09 0.1,-0.18 0.14,-0.27l0.03,-0.06c0.05,-0.09 0.1,-0.18 0.15,-0.27l0.01,-0.02c0.05,-0.08 0.1,-0.17 0.15,-0.25l0.03,-0.04c0.05,-0.09 0.11,-0.17 0.16,-0.26c0.01,-0.01 0.02,-0.03 0.03,-0.04c0.05,-0.08 0.1,-0.16 0.16,-0.24c0.01,-0.01 0.01,-0.01 0.02,-0.02c0.05,-0.09 0.11,-0.17 0.18,-0.25l0.03,-0.04c0.12,-0.17 0.25,-0.33 0.39,-0.49l0.03,-0.03c0.07,-0.08 0.14,-0.16 0.2,-0.24l0.03,-0.02c0.06,-0.07 0.13,-0.15 0.2,-0.22l0.02,-0.02c0.07,-0.07 0.14,-0.14 0.22,-0.22l0.03,-0.03c0.15,-0.14 0.31,-0.28 0.47,-0.42l0.03,-0.03c0.08,-0.06 0.16,-0.13 0.24,-0.2l0.01,0c0.08,-0.07 0.16,-0.13 0.25,-0.2l0.01,-0.01c0.09,-0.07 0.18,-0.13 0.26,-0.19l0.03,-0.02c0.17,-0.12 0.35,-0.24 0.53,-0.35l0.03,-0.02c0.18,-0.11 0.37,-0.22 0.56,-0.32l0.02,-0.01c0.1,-0.05 0.19,-0.1 0.29,-0.15l0.01,0c0.2,-0.1 0.4,-0.19 0.61,-0.28l0.02,-0.01c0.2,-0.08 0.41,-0.16 0.61,-0.23l0.02,-0.01c0.22,-0.07 0.43,-0.14 0.65,-0.2l0,0c0.93,-0.25 1.89,-0.39 2.89,-0.39c5.79,0 10.54,4.56 10.84,10.28z" fill="#4FC0FF" fill-rule="evenodd" id="svg_6"/>
 </g>
</svg>