<svg width="487" height="74" viewBox="0 0 487 74" fill="none" xmlns="http://www.w3.org/2000/svg">
<path d="M257.783 72.0356V3.56055H294.843V13.1055H265.71L268.656 10.5325V36.6775L265.71 32.9426H293.017V42.4875H265.71L268.656 38.7525V72.0356H257.783Z" fill="#20252C"/>
<path d="M321.243 73.3636C316.706 73.3636 312.639 72.3814 309.042 70.4171C305.473 68.4527 302.638 65.769 300.535 62.366C298.46 58.963 297.422 55.1312 297.422 50.8705C297.422 47.7165 298.017 44.77 299.207 42.031C300.397 39.292 302.043 36.8851 304.145 34.8101C306.248 32.735 308.697 31.1165 311.491 29.9545C314.285 28.7925 317.301 28.2116 320.538 28.2116C324.965 28.2116 328.838 29.1246 332.158 30.9505C335.506 32.7765 338.106 35.3219 339.96 38.5865C341.841 41.8512 342.782 45.6554 342.782 49.9991C342.782 50.3587 342.768 50.663 342.74 50.912C342.713 51.1334 342.657 51.5207 342.574 52.074H307.963C307.963 54.647 308.544 56.9157 309.706 58.8801C310.868 60.8167 312.487 62.3384 314.562 63.445C316.665 64.524 319.072 65.0635 321.783 65.0635C324.356 65.0635 326.638 64.5517 328.63 63.528C330.65 62.4767 332.476 60.8859 334.108 58.7555L341.62 62.615C339.6 65.9904 336.792 68.6325 333.195 70.5415C329.626 72.4229 325.642 73.3636 321.243 73.3636ZM308.42 45.6H332.531C332.172 43.6634 331.439 41.9895 330.332 40.5785C329.225 39.1675 327.828 38.0747 326.14 37.3C324.453 36.4977 322.571 36.0965 320.496 36.0965C318.311 36.0965 316.36 36.4839 314.645 37.2585C312.93 38.0332 311.532 39.126 310.453 40.537C309.374 41.9481 308.697 43.6357 308.42 45.6Z" fill="#20252C"/>
<path d="M351.136 72.0356V29.5395H361.469V34.6441C362.936 32.7627 364.886 31.2272 367.321 30.0375C369.783 28.8202 372.591 28.2116 375.745 28.2116C379.01 28.2116 381.86 28.9171 384.294 30.3281C386.757 31.7114 388.666 33.6757 390.021 36.2211C391.377 38.7664 392.055 41.782 392.055 45.268V72.0356H381.721V47.426C381.721 43.8847 380.836 41.1595 379.065 39.2505C377.322 37.3139 374.902 36.3456 371.803 36.3456C369.673 36.3456 367.833 36.7882 366.283 37.6735C364.734 38.5312 363.544 39.6932 362.714 41.1595C361.884 42.5982 361.469 44.2029 361.469 45.9735V72.0356H351.136Z" fill="#20252C"/>
<path d="M423.144 73.3636C419.934 73.3636 416.905 72.7964 414.055 71.6621C411.233 70.5001 408.743 68.8954 406.585 66.848C404.427 64.8007 402.726 62.4075 401.481 59.6685C400.264 56.9295 399.655 53.9692 399.655 50.7875C399.655 47.7165 400.236 44.8254 401.398 42.114C402.587 39.375 404.234 36.968 406.336 34.893C408.467 32.818 410.957 31.1857 413.806 29.996C416.684 28.8064 419.782 28.2116 423.102 28.2116C425.869 28.2116 428.511 28.6127 431.029 29.415C433.574 30.2174 435.677 31.2687 437.337 32.569L433.643 39.541C431.209 37.6874 428.207 36.7605 424.638 36.7605C421.705 36.7605 419.174 37.4107 417.043 38.711C414.913 39.9837 413.281 41.699 412.146 43.857C411.012 45.9874 410.445 48.2975 410.445 50.7875C410.445 53.4159 411.04 55.7952 412.229 57.9255C413.419 60.0282 415.093 61.702 417.251 62.947C419.409 64.192 421.899 64.8145 424.721 64.8145C426.464 64.8145 428.096 64.5656 429.618 64.0676C431.167 63.5696 432.495 62.8917 433.602 62.034L437.337 69.0061C435.649 70.2787 433.56 71.3162 431.07 72.1186C428.58 72.9486 425.938 73.3636 423.144 73.3636Z" fill="#20252C"/>
<path d="M464.868 73.3636C460.331 73.3636 456.264 72.3814 452.667 70.4171C449.098 68.4527 446.263 65.769 444.16 62.366C442.085 58.963 441.047 55.1312 441.047 50.8705C441.047 47.7165 441.642 44.77 442.832 42.031C444.022 39.292 445.668 36.8851 447.77 34.8101C449.873 32.735 452.322 31.1165 455.116 29.9545C457.91 28.7925 460.926 28.2116 464.163 28.2116C468.59 28.2116 472.463 29.1246 475.783 30.9505C479.131 32.7765 481.731 35.3219 483.585 38.5865C485.466 41.8512 486.407 45.6554 486.407 49.9991C486.407 50.3587 486.393 50.663 486.365 50.912C486.338 51.1334 486.282 51.5207 486.199 52.074H451.588C451.588 54.647 452.169 56.9157 453.331 58.8801C454.493 60.8167 456.112 62.3384 458.187 63.445C460.29 64.524 462.697 65.0635 465.408 65.0635C467.981 65.0635 470.263 64.5517 472.255 63.528C474.275 62.4767 476.101 60.8859 477.733 58.7555L485.245 62.615C483.225 65.9904 480.417 68.6325 476.82 70.5415C473.251 72.4229 469.267 73.3636 464.868 73.3636ZM452.045 45.6H476.156C475.797 43.6634 475.064 41.9895 473.957 40.5785C472.85 39.1675 471.453 38.0747 469.765 37.3C468.078 36.4977 466.196 36.0965 464.121 36.0965C461.936 36.0965 459.985 36.4839 458.27 37.2585C456.555 38.0332 455.157 39.126 454.078 40.537C452.999 41.9481 452.322 43.6357 452.045 45.6Z" fill="#20252C"/>
<path fill-rule="evenodd" clip-rule="evenodd" d="M64.7593 72.0353V0.655273H77.4998V72.0353H64.7593ZM37.954 73.3633C32.7803 73.3633 27.9248 72.4503 23.3875 70.6243C18.8502 68.7983 14.8523 66.2668 11.394 63.0298C7.93565 59.7651 5.23815 55.9886 3.30148 51.7003C1.36482 47.4119 0.396484 42.8054 0.396484 37.8808C0.396484 32.9284 1.36482 28.3081 3.30148 24.0198C5.26582 19.7038 7.96332 15.9273 11.394 12.6903C14.8523 9.4256 18.8363 6.88027 23.346 5.05427C27.8833 3.22827 32.725 2.31527 37.871 2.31527C42.0763 2.31527 46.0742 2.9101 49.8645 4.09977C53.6825 5.28944 56.9472 6.8526 59.6585 8.78927L53.8485 20.2018C51.9948 18.7354 49.74 17.5873 47.084 16.7573C44.428 15.9273 41.6475 15.5123 38.7425 15.5123C35.3395 15.5123 32.1855 16.0794 29.2805 17.2138C26.4032 18.3481 23.8855 19.9251 21.7275 21.9448C19.5972 23.9644 17.9372 26.3299 16.7475 29.0413C15.5578 31.7526 14.963 34.6853 14.963 37.8393C14.963 40.9933 15.5578 43.9259 16.7475 46.6373C17.9372 49.3486 19.5972 51.7141 21.7275 53.7338C23.8855 55.7534 26.4032 57.3304 29.2805 58.4648C32.1855 59.5991 35.3395 60.1663 38.7425 60.1663C41.6475 60.1663 44.428 59.7513 47.084 58.9213C49.74 58.0913 51.9948 56.9431 53.8485 55.4768L59.6585 66.8893C57.0578 68.7706 53.8623 70.3199 50.072 71.5373C46.2817 72.7546 42.2423 73.3633 37.954 73.3633ZM96.9875 70.4998C100.75 72.4088 104.969 73.3633 109.645 73.3633C114.348 73.3633 118.581 72.4088 122.344 70.4998C126.107 68.5631 129.081 65.9071 131.267 62.5318C133.48 59.1288 134.587 55.2139 134.587 50.7873C134.587 46.3606 133.48 42.4596 131.267 39.0843C129.081 35.6813 126.107 33.0253 122.344 31.1163C118.581 29.1796 114.348 28.2113 109.645 28.2113C104.969 28.2113 100.736 29.1796 96.946 31.1163C93.1833 33.0253 90.1953 35.6813 87.982 39.0843C85.7963 42.4596 84.7035 46.3606 84.7035 50.7873C84.7035 55.2139 85.8102 59.1288 88.0235 62.5318C90.2368 65.9071 93.2248 68.5631 96.9875 70.4998ZM162.7 73.3633C154.953 73.3633 149.364 71.8278 145.934 68.7568C142.503 65.6858 140.788 60.6643 140.788 53.6923V29.5393H153.528V50.7043C153.528 55.1863 154.22 58.3541 155.603 60.2078C157.014 62.0614 159.38 62.9883 162.7 62.9883C166.075 62.9883 168.441 62.0614 169.796 60.2078C171.18 58.3541 171.871 55.1863 171.871 50.7043V29.5393H184.612V53.6923C184.612 60.6643 182.896 65.6858 179.466 68.7568C176.063 71.8278 170.474 73.3633 162.7 73.3633ZM201.66 70.4998C204.842 72.4088 208.355 73.3633 212.201 73.3633C215.161 73.3633 217.928 72.7546 220.501 71.5373C223.074 70.3199 225.301 68.6184 227.183 66.4328V72.0353H239.923V0.655273H227.183V34.7268C225.495 32.6794 223.378 31.0886 220.833 29.9543C218.288 28.7923 215.521 28.2113 212.533 28.2113C208.411 28.2113 204.745 29.2073 201.536 31.1993C198.354 33.1636 195.85 35.8473 194.024 39.2503C192.198 42.6256 191.285 46.4713 191.285 50.7873C191.285 55.1863 192.226 59.0873 194.107 62.4903C195.988 65.8933 198.506 68.5631 201.66 70.4998ZM221.954 61.0378C220.238 62.0338 218.26 62.5318 216.019 62.5318C213.833 62.5318 211.883 62.0338 210.168 61.0378C208.452 60.0141 207.11 58.6308 206.142 56.8878C205.174 55.1171 204.69 53.1113 204.69 50.8703C204.69 48.6016 205.188 46.5819 206.184 44.8113C207.18 43.0129 208.521 41.6019 210.209 40.5783C211.924 39.5546 213.875 39.0428 216.061 39.0428C218.274 39.0428 220.238 39.5546 221.954 40.5783C223.669 41.6019 225.011 42.9991 225.979 44.7698C226.975 46.5404 227.473 48.5601 227.473 50.8288C227.473 53.0698 226.975 55.0756 225.979 56.8463C225.011 58.6169 223.669 60.0141 221.954 61.0378ZM122.126 47.2861C123.741 47.6266 125.215 48.4577 126.354 49.6851C127.74 51.1771 128.502 53.1205 128.502 55.1573C128.502 59.5933 124.893 63.2021 120.457 63.2021C120.438 63.2021 120.418 63.2021 120.399 63.2019C120.373 63.2017 120.348 63.2014 120.322 63.2009C120.305 63.2018 120.288 63.2021 120.27 63.2021H98.9423C93.7843 63.2021 89.5879 59.0058 89.5879 53.8477C89.5879 50.5185 91.3365 47.5903 93.9631 45.9326C93.969 45.9288 93.975 45.9251 93.981 45.9214C93.986 45.9183 93.991 45.9151 93.996 45.912C94.1768 45.799 94.3615 45.6919 94.5501 45.5912C94.5581 45.5868 94.5662 45.5826 94.5743 45.5783L94.5885 45.5709C94.7761 45.4718 94.9674 45.3788 95.1622 45.2924L95.2075 45.2725C95.3038 45.2304 95.4007 45.1895 95.4986 45.1506L95.4992 45.1503C95.5978 45.1111 95.6975 45.0739 95.7978 45.038L95.8511 45.0192C95.9491 44.9849 96.0475 44.9517 96.1469 44.9204L96.1507 44.9191C96.2514 44.8876 96.3528 44.8582 96.4549 44.83C96.4754 44.8243 96.496 44.8187 96.5166 44.8132C96.6159 44.7866 96.7158 44.761 96.8164 44.7375L96.8229 44.7359C96.9253 44.7121 97.0285 44.6905 97.1322 44.6701L97.2011 44.6568C97.3021 44.6377 97.4035 44.6197 97.5057 44.6039L97.5137 44.6026C97.6178 44.5866 97.7226 44.5728 97.8277 44.5603C97.8528 44.5573 97.8778 44.5545 97.9029 44.5517C98.0064 44.5402 98.1101 44.5298 98.2146 44.5218L98.221 44.5212C98.3269 44.5131 98.4334 44.5074 98.5402 44.5028L98.6194 44.4999C98.7266 44.4962 98.8342 44.4937 98.9423 44.4937C99.1916 44.4937 99.4398 44.5034 99.6865 44.5228C99.7252 44.5259 99.7638 44.5292 99.8024 44.5327C99.8458 44.5367 99.8893 44.5409 99.9327 44.5455C100.096 44.5627 100.26 44.5843 100.422 44.6102C100.584 44.6359 100.746 44.6661 100.906 44.7005C100.937 44.6004 100.969 44.5013 101.002 44.4025L101.024 44.3379C101.057 44.2416 101.091 44.1459 101.126 44.0509C101.131 44.0362 101.137 44.0216 101.143 44.0068C101.176 43.9201 101.21 43.8339 101.245 43.7484C101.248 43.7386 101.252 43.7288 101.256 43.719C101.259 43.7118 101.262 43.7046 101.265 43.6974C101.304 43.6041 101.344 43.5116 101.385 43.4198L101.411 43.3625C101.451 43.2739 101.492 43.1858 101.535 43.0986L101.544 43.08C101.589 42.9883 101.635 42.8975 101.683 42.8073L101.713 42.7504C101.76 42.6609 101.809 42.5719 101.859 42.4839L101.874 42.4587C101.921 42.3759 101.97 42.2938 102.02 42.2124L102.048 42.1659C102.101 42.08 102.155 41.9951 102.21 41.9109C102.219 41.8967 102.229 41.8827 102.238 41.8684C102.291 41.7884 102.345 41.709 102.401 41.6304C102.406 41.623 102.411 41.6154 102.416 41.6081C102.475 41.5246 102.535 41.4422 102.596 41.3606L102.63 41.3158C102.755 41.1506 102.884 40.9893 103.018 40.8319L103.05 40.795C103.117 40.717 103.185 40.6401 103.254 40.5642L103.276 40.54C103.343 40.4668 103.411 40.3943 103.48 40.323L103.498 40.3041C103.57 40.2296 103.644 40.1562 103.718 40.0839L103.749 40.0541C103.9 39.9082 104.056 39.7668 104.215 39.63L104.245 39.6042C104.326 39.5355 104.407 39.4678 104.49 39.4015L104.496 39.3967C104.578 39.3304 104.662 39.2654 104.746 39.2016L104.764 39.1881C104.849 39.124 104.935 39.0613 105.022 38.9998L105.045 38.9842C105.221 38.8605 105.4 38.7421 105.583 38.6288L105.608 38.6133C105.793 38.4998 105.982 38.3917 106.174 38.2892L106.19 38.28C106.287 38.2287 106.384 38.1787 106.483 38.1302L106.493 38.1253C106.691 38.0277 106.892 37.936 107.097 37.8505L107.117 37.8419C107.32 37.7574 107.526 37.6789 107.735 37.6066L107.753 37.6002C107.967 37.5267 108.183 37.4596 108.402 37.3993H108.402C109.325 37.1451 110.294 37.0098 111.29 37.0098C117.081 37.0098 121.826 41.569 122.126 47.2861Z" fill="#4FC0FF"/>
</svg>
